<svg height="459pt" viewBox="0 -33 459.228 459" width="459pt" xmlns="http://www.w3.org/2000/svg"><path d="m347.054688 392.96875c-61.726563 0-111.945313-50.21875-111.945313-111.945312 0-61.726563 50.21875-111.945313 111.945313-111.945313 61.726562 0 111.945312 50.21875 111.945312 111.945313 0 61.726562-50.21875 111.945312-111.945312 111.945312zm0-209.898438c-54.007813 0-97.949219 43.941407-97.949219 97.953126 0 54.007812 43.941406 97.949218 97.949219 97.949218 54.011718 0 97.953124-43.941406 97.953124-97.949218 0-54.011719-43.941406-97.953126-97.953124-97.953126zm0 0"/><path d="m346.023438 333.136719c-1.792969 0-3.582032-.683594-4.949219-2.050781l-45.113281-45.113282c-1.3125-1.3125-2.050782-3.09375-2.050782-4.949218 0-1.855469.734375-3.632813 2.046875-4.945313l45.117188-45.117187c2.734375-2.730469 7.164062-2.730469 9.894531 0 2.734375 2.730468 2.734375 7.160156 0 9.894531l-40.167969 40.167969 40.167969 40.167968c2.734375 2.730469 2.734375 7.164063 0 9.894532-1.367188 1.367187-3.15625 2.050781-4.945312 2.050781zm0 0"/><path d="m410.441406 288.019531h-109.035156c-3.863281 0-6.996094-3.132812-6.996094-6.996093 0-3.863282 3.132813-6.996094 6.996094-6.996094h109.035156c3.863282 0 6.996094 3.132812 6.996094 6.996094 0 3.863281-3.132812 6.996093-6.996094 6.996093zm0 0"/><path d="m244.992188 312.550781h-198.015626c-25.902343 0-46.976562-21.074219-46.976562-46.976562v-218.5c0-25.902344 21.074219-46.9765628 46.976562-46.9765628h259.871094c25.902344 0 46.976563 21.0742188 46.976563 46.9765628v129c0 3.867187-3.132813 7-6.996094 7s-6.996094-3.132813-6.996094-7v-129c0-18.1875-14.796875-32.984375-32.984375-32.984375h-259.871094c-18.1875 0-32.984374 14.796875-32.984374 32.984375v218.5c0 18.1875 14.796874 32.984375 32.984374 32.984375h198.015626c3.863281 0 6.996093 3.132812 6.996093 6.996094 0 3.863281-3.132812 6.996093-6.996093 6.996093zm0 0"/><path d="m346.828125 95.394531h-339.832031c-3.863282 0-6.996094-3.132812-6.996094-6.996093 0-3.863282 3.132812-6.996094 6.996094-6.996094h339.832031c3.863281 0 6.996094 3.132812 6.996094 6.996094 0 3.863281-3.132813 6.996093-6.996094 6.996093zm0 0"/><path d="m100.328125 67.628906c-10.78125 0-19.554687-8.773437-19.554687-19.554687s8.773437-19.554688 19.554687-19.554688 19.554687 8.773438 19.554687 19.554688-8.773437 19.554687-19.554687 19.554687zm0-25.117187c-3.066406 0-5.5625 2.496093-5.5625 5.5625 0 3.066406 2.496094 5.5625 5.5625 5.5625s5.5625-2.496094 5.5625-5.5625c0-3.066407-2.496094-5.5625-5.5625-5.5625zm0 0"/><path d="m43.914062 67.453125c-10.78125 0-19.554687-8.773437-19.554687-19.554687 0-10.785157 8.773437-19.554688 19.554687-19.554688s19.554688 8.769531 19.554688 19.554688c0 10.78125-8.773438 19.554687-19.554688 19.554687zm0-25.117187c-3.066406 0-5.5625 2.496093-5.5625 5.5625 0 3.066406 2.496094 5.5625 5.5625 5.5625 3.066407 0 5.5625-2.496094 5.5625-5.5625 0-3.066407-2.496093-5.5625-5.5625-5.5625zm0 0"/><path d="m156.742188 67.804688c-10.78125 0-19.554688-8.769532-19.554688-19.554688 0-10.78125 8.773438-19.554688 19.554688-19.554688 10.785156 0 19.554687 8.773438 19.554687 19.554688 0 10.785156-8.769531 19.554688-19.554687 19.554688zm0-25.117188c-3.066407 0-5.5625 2.496094-5.5625 5.5625s2.496093 5.5625 5.5625 5.5625c3.070312 0 5.5625-2.496094 5.5625-5.5625s-2.492188-5.5625-5.5625-5.5625zm0 0"/></svg>